# xmcd CD database file
#
# Track frame offsets:
#	150
#	22095
#	43327
#	65272
#
# Disc length: 1151 seconds
#
# Revision: 0
# Processed by: cddbd v1.5PL3 Copyright (c) Steve Scherf et al.
# Submitted via: CDex 1.50beta9
#
DISCID=33047d04
DTITLE=薬師丸ひろ子 - 恋文〜哀愁篇〜
DYEAR=1997
DGENRE=J-POP
TTITLE0=恋文〜哀愁篇〜
TTITLE1=再会橋
TTITLE2=恋文〜哀愁篇〜　カラオケ
TTITLE3=再会橋　カラオケ
EXTD=YEAR: 1997
EXTT0=
EXTT1=
EXTT2=
EXTT3=
PLAYORDER=
